<mxfile host="app.diagrams.net" modified="2023-09-20T01:47:21.460Z" agent="Mozilla/5.0 (Windows NT 10.0; Win64; x64) AppleWebKit/537.36 (KHTML, like Gecko) Chrome/116.0.0.0 Safari/537.36 Edg/116.0.1938.81" version="21.7.4" etag="rBoirkN_HzFFHGHMKgJZ" type="github">
  <diagram name="第 1 页" id="JnWuIOfnAa0r0OFPj_lL">
    <mxGraphModel>
      <root>
        <mxCell id="0" />
        <mxCell id="1" parent="0" />
      </root>
    </mxGraphModel>
  </diagram>
</mxfile>
